<?xml version="1.0" encoding="utf-8"?>
<!-- Generator: Adobe Illustrator 24.0.2, SVG Export Plug-In . SVG Version: 6.00 Build 0)  -->
<svg version="1.1" id="Layer_1" xmlns="http://www.w3.org/2000/svg" xmlns:xlink="http://www.w3.org/1999/xlink" x="0px" y="0px"
	 viewBox="0 0 586.4 137.8" style="enable-background:new 0 0 586.4 137.8;" xml:space="preserve">
<style type="text/css">
	.st0{display:none;}
	.st1{display:inline;fill:#5D5D5D;}
	.st2{display:inline;}
	.st3{fill:#5D5D5D;}
	
		.st4{display:inline;fill:none;stroke:#000000;stroke-width:0.25;stroke-linecap:round;stroke-linejoin:round;stroke-miterlimit:10;}
	.st5{fill:none;stroke:#000000;stroke-linecap:round;stroke-linejoin:round;stroke-miterlimit:10;}
	.st6{fill:#1234A8;}
	.st7{fill:#004BFA;}
	.st8{fill:#FFFFFF;}
	.st9{enable-background:new    ;}
</style>
<g id="Layer_1_1_" class="st0">
	<path class="st1" d="M442.7-66.9c0,0.8,0.5,1.2,1.2,1.2h5.7v11.2c0,0.6,0.1,1,0.6,1.1c0.2,0,0.7,0.1,1.4,0.1s1.1-0.4,1.1-1.2v-11.2
		h5.7c0.8,0,1.2-0.4,1.2-1.2c0-0.5-0.1-0.8-0.2-1c-0.2-0.3-0.5-0.5-1-0.5h-14.5c-0.5,0-0.8,0.2-1,0.5
		C442.8-67.8,442.7-67.4,442.7-66.9"/>
	<path class="st1" d="M424.3-68.4c-0.8,0-1.2,0.5-1.2,1.2v12.7c0,0.6,0.3,1,0.8,1.1c0.1,0.1,0.5,0.1,1.2,0.1c0.8,0,1.1-0.4,1.1-1.2
		v-4.1l11.9,5.2c0.1,0.1,0.7,0.1,1.6,0.1c0.8-0.1,1.2-0.4,1.2-1.1c0-0.5-0.2-0.9-0.8-1.1l-8.7-3.4h4v-2.6h-9.2v-4.2h8.7
		c2.4,0,3.5,0.4,3.5,1.2v1.8c0,0.8-1,1.2-3,1.2v2.6c1.6,0,2.9-0.2,4-0.6c1.5-0.7,2.2-1.8,2.2-3.2v-1.7c0-1.5-0.7-2.6-2.2-3.2
		c-1.3-0.5-2.7-0.8-4.4-0.8L424.3-68.4"/>
	<path class="st1" d="M420.6-64.3c0-1.7-0.8-3-2.4-3.6c-1-0.4-2.5-0.6-4.6-0.6h-4.2v2.7h4.3c2.5,0,3.7,0.5,3.7,1.6v6.6
		c0,1-1.2,1.5-3.7,1.5h-4.3c-2.5,0-3.8-0.5-3.8-1.5v-6.6c0-1.1,1.3-1.6,3.8-1.6v-2.7c-4.6,0-7,1.5-7,4.2v6.8c0,1.5,0.9,2.7,2.6,3.4
		c1.2,0.5,2.7,0.7,4.4,0.7h4.2c4.6,0,7-1.4,7-4.1V-64.3"/>
	<path class="st1" d="M397.7-59.5c1.5-0.6,2.2-1.6,2.2-3.2V-65c0-1.3-0.9-2.2-2.8-2.9c-0.9-0.4-2.1-0.6-3.5-0.6v2.7
		c2.1,0,3.2,0.3,3.2,1v2c0,1-1.1,1.5-3.2,1.5h-9.1v-4.5h9.1v-2.7h-11.1c-0.8,0-1.2,0.5-1.2,1.2v12.7c0,0.8,0.4,1.2,1.2,1.2
		c0.6,0,1.1-0.1,1.2-0.1c0.5-0.1,0.8-0.5,0.8-1.1v-4h8.9C395.1-58.5,396.6-58.8,397.7-59.5"/>
	<path class="st1" d="M361.8-64.4v1.1c0,1.9,1.3,3,3.8,3.4c0.4,0.1,2.6,0.2,6.8,0.3c2.2,0.1,3.3,0.5,3.3,1.2v1.3
		c0,0.7-1.1,1.1-3.5,1.1H363c-0.4,0-0.8,0.1-1,0.5c-0.1,0.2-0.1,0.6-0.1,1c0,0.8,0.3,1.2,1.1,1.2h9.2c3.4,0,5.5-0.6,6.3-2
		c0.2-0.5,0.4-1.1,0.4-1.9v-1.2c0-1.5-0.9-2.6-2.5-3.3c-1.2-0.4-2.5-0.6-4.2-0.6h-3.5c-1.1,0-1.8-0.1-2.2-0.1c-1-0.1-1.5-0.5-1.5-1
		v-1c0-0.9,1.2-1.3,3.6-1.3c0.3,0,0.5,0,0.7,0c0.3,0,0.5,0,0.6,0c0.7,0,1.2-0.4,1.2-1.2v-0.3c0-0.7-0.5-1.2-1.2-1.2
		c-2.5,0-4.2,0.1-5.1,0.4C362.8-67.4,361.8-66.3,361.8-64.4"/>
	<path class="st2" d="M357.2-59.5c1.5-0.7,2.3-1.8,2.3-3.2v-1.7c0-1.5-0.8-2.6-2.3-3.2c-1.2-0.5-2.7-0.8-4.3-0.8h-10.8
		c-0.7,0-1.1,0.5-1.1,1.2v12.7c0,0.6,0.2,1,0.7,1.1c0.2,0.1,0.5,0.1,1.2,0.1c0.8,0,1.2-0.4,1.2-1.2v-4.1l11.8,5.2
		c0.2,0.1,0.7,0.1,1.6,0.1c0.9-0.1,1.3-0.4,1.3-1.1c0-0.5-0.3-0.9-0.9-1.1l-8.7-3.4h4.1v-2.6h-9.2v-4.2h8.7c2.3,0,3.5,0.4,3.5,1.2
		v1.8c0,0.8-1,1.2-3,1.2v2.6C354.9-59,356.1-59.2,357.2-59.5"/>
	<path class="st2" d="M322.3-66.4c-0.5,0.5-0.7,1.2-0.7,2v7.2c0,1.4,0.7,2.4,2.2,3.2c1.2,0.5,2.4,0.7,3.9,0.7h9.5
		c0.9,0,1.3-0.5,1.3-1.5c0-0.8-0.4-1.2-1.3-1.2h-9.3c-2.2,0-3.2-0.4-3.2-1.3v-2.1h12.5c0.4,0,0.8-0.2,1-0.5s0.3-0.6,0.3-1
		c0-0.8-0.4-1.2-1.3-1.2h-12.5v-2.3c0-0.9,1.4-1.4,4.1-1.4c0.3,0,0.7,0,1.1,0c0.4,0.1,0.6,0.1,0.7,0.1c0.8,0,1.1-0.4,1.1-1.2v-0.3
		c0-0.7-0.3-1.2-1.1-1.2H328C325.2-68.4,323.4-67.8,322.3-66.4"/>
	<path class="st2" d="M318.9-66.7c0-0.6-0.2-1-0.5-1.3s-0.8-0.5-1.3-0.5c-0.6,0-1.2,0.3-1.6,0.9l-9,10.9l-9.1-10.9
		c-0.4-0.6-1-0.9-1.8-0.9c-0.5,0-0.9,0.2-1.1,0.5c-0.4,0.2-0.6,0.6-0.6,1.1v12.3c0,0.6,0.2,1,0.7,1.1c0.2,0.1,0.6,0.1,1.3,0.1
		c0.7,0,1.2-0.4,1.2-1.2v-9.3l7.5,9.7c0.5,0.6,1.1,0.8,1.9,0.8c0.7,0,1.4-0.2,1.9-0.8l7.3-9.6v9.2c0,0.8,0.4,1.2,1.3,1.2
		c0.6,0,1,0,1.1-0.1c0.5-0.1,0.8-0.5,0.8-1.1L318.9-66.7"/>
	<path class="st2" d="M266.8-67.9c-0.3,0.2-0.6,0.6-0.6,1.1v12.3c0,0.6,0.3,1,0.8,1.1c0.1,0.1,0.6,0.1,1.2,0.1
		c0.8,0,1.2-0.4,1.2-1.2v-9.3l7.6,9.7c0.4,0.6,1.1,0.8,1.9,0.8c0.7,0,1.3-0.2,1.8-0.8l7.4-9.6v9.2c0,0.8,0.4,1.2,1.2,1.2
		c0.7,0,1.1,0,1.2-0.1c0.5-0.1,0.7-0.5,0.7-1.1v-12.1c0-0.6-0.1-1-0.5-1.3c-0.3-0.3-0.7-0.5-1.2-0.5c-0.7,0-1.3,0.3-1.7,0.9
		l-8.9,10.9l-9.2-10.9c-0.4-0.6-1-0.9-1.7-0.9C267.5-68.4,267.1-68.3,266.8-67.9"/>
	<path class="st2" d="M379.4-34.3h-1.9v10.8h1.8V-26c0-1,0-2,0-2.8c-0.1-0.8-0.1-1.5-0.1-2l0,0c0.1,0.3,0.2,0.6,0.4,1
		c0,0.4,0.2,0.8,0.4,1.2c0.1,0.3,0.2,0.7,0.3,1l1.7,4.1h1.9v-10.8h-1.8v2.4c0,1,0,1.9,0,2.8c0,0.8,0.1,1.6,0.1,2.2l0,0
		c-0.1-0.4-0.2-0.7-0.3-1.1c-0.2-0.3-0.3-0.7-0.4-1.1c-0.2-0.4-0.4-0.7-0.4-0.9L379.4-34.3"/>
	<polyline class="st2" points="351.6,-34.3 349.6,-34.3 349.6,-23.5 351.6,-23.5 351.6,-34.3 	"/>
	<path class="st2" d="M415.7-23.9v-5.7h-2.9v1.7h1v2.5c-0.1,0.1-0.1,0.1-0.2,0.1h-0.2c-0.4,0-0.7-0.1-1-0.3
		c-0.3-0.3-0.5-0.6-0.7-1.2c-0.2-0.5-0.3-1.1-0.3-2c0-1,0.1-1.7,0.3-2.3c0.2-0.5,0.5-0.8,1-1.1c0.3-0.2,0.7-0.4,1.2-0.4
		c0.3,0,0.5,0,0.8,0.1c0.2,0.1,0.3,0.1,0.5,0.1l0.4-1.7c-0.2-0.2-0.4-0.2-0.7-0.3c-0.3,0-0.7,0-1.1,0c-0.6,0-1.1,0-1.7,0.3
		c-0.5,0.2-1,0.5-1.4,1c-0.5,0.4-0.8,1-1.1,1.7c-0.2,0.6-0.4,1.5-0.4,2.5c0,0.9,0.1,1.8,0.4,2.5c0.2,0.7,0.6,1.3,1,1.8
		c0.3,0.3,0.8,0.7,1.3,0.8c0.4,0.2,1,0.3,1.5,0.3c0.3,0,0.6,0,0.9-0.1c0.3,0,0.6-0.1,0.8-0.1C415.4-23.8,415.6-23.9,415.7-23.9"/>
	<path class="st2" d="M225.6-62.2v-5.1c0-0.7-0.4-1.2-1.2-1.2c-0.6,0-1.1,0-1.2,0.1c-0.5,0.1-0.7,0.5-0.7,1.1v12.7
		c0,0.6,0.1,1,0.6,1.1c0.2,0,0.7,0.1,1.3,0.1c0.8,0,1.2-0.4,1.2-1.2v-4.9H238v4.9c0,0.6,0.2,1,0.6,1.1c0.2,0,0.7,0.1,1.3,0.1
		c0.8,0,1.2-0.4,1.2-1.2v-12.7c0-0.7-0.4-1.2-1.2-1.2c-0.6,0-1,0.1-1.3,0.1c-0.4,0.1-0.6,0.5-0.6,1.1v5.1L225.6-62.2"/>
	<path class="st2" d="M254.8-67.8c-0.1,0-0.2-0.1-0.2-0.2c-0.3-0.5-0.9-0.7-1.6-0.6c-0.9,0-1.5,0.3-1.9,0.8l-8.3,12.8
		c-0.1,0.2-0.2,0.4-0.2,0.5c0,0.5,0.4,0.8,1,1c0.2,0.2,0.4,0.2,0.6,0.2c0.4,0,0.7-0.2,1.1-0.7l2.2-3.3h11l2.3,3.3
		c0.3,0.6,0.8,0.9,1.4,0.9c0.4,0,0.8-0.2,1.1-0.4c0.3-0.4,0.4-0.7,0.4-1.1c0-0.2,0-0.4-0.1-0.5L254.8-67.8l-1.8,2.4l3.8,5.4h-7.6
		l3.8-5.4"/>
	<g class="st2">
		<path class="st3" d="M393.9,179c0,0.8,0.5,1.2,1.2,1.2h5.7v11.2c0,0.6,0.1,1,0.6,1.1c0.2,0,0.7,0.1,1.4,0.1c0.7,0,1.1-0.4,1.1-1.2
			v-11.2h5.7c0.8,0,1.2-0.4,1.2-1.2c0-0.5-0.1-0.8-0.2-1c-0.2-0.3-0.5-0.5-1-0.5h-14.5c-0.5,0-0.8,0.2-1,0.5
			C394,178.2,393.9,178.5,393.9,179"/>
		<path class="st3" d="M375.5,177.5c-0.8,0-1.2,0.5-1.2,1.2v12.7c0,0.6,0.3,1,0.8,1.1c0.1,0.1,0.5,0.1,1.2,0.1
			c0.8,0,1.1-0.4,1.1-1.2v-4.1l11.9,5.2c0.1,0.1,0.7,0.1,1.6,0.1c0.8-0.1,1.2-0.4,1.2-1.1c0-0.5-0.2-0.9-0.8-1.1l-8.7-3.4h4v-2.6
			h-9.2v-4.2h8.7c2.4,0,3.5,0.4,3.5,1.2v1.8c0,0.8-1,1.2-3,1.2v2.6c1.6,0,2.9-0.2,4-0.6c1.5-0.7,2.2-1.8,2.2-3.2v-1.7
			c0-1.5-0.7-2.6-2.2-3.2c-1.3-0.5-2.7-0.8-4.4-0.8H375.5"/>
		<path class="st3" d="M371.8,181.7c0-1.7-0.8-3-2.4-3.6c-1-0.4-2.5-0.6-4.6-0.6h-4.2v2.7h4.3c2.5,0,3.7,0.5,3.7,1.6v6.6
			c0,1-1.2,1.5-3.7,1.5h-4.3c-2.5,0-3.8-0.5-3.8-1.5v-6.6c0-1.1,1.3-1.6,3.8-1.6v-2.7c-4.6,0-7,1.5-7,4.2v6.8c0,1.5,0.9,2.7,2.6,3.4
			c1.2,0.5,2.7,0.7,4.4,0.7h4.2c4.6,0,7-1.4,7-4.1V181.7"/>
		<path class="st3" d="M348.9,186.5c1.5-0.6,2.2-1.6,2.2-3.2V181c0-1.3-0.9-2.2-2.8-2.9c-0.9-0.4-2.1-0.6-3.5-0.6v2.7
			c2.1,0,3.2,0.3,3.2,1v2c0,1-1.1,1.5-3.2,1.5h-9.1v-4.5h9.1v-2.7h-11.1c-0.8,0-1.2,0.5-1.2,1.2v12.7c0,0.8,0.4,1.2,1.2,1.2
			c0.6,0,1.1-0.1,1.2-0.1c0.5-0.1,0.8-0.5,0.8-1.1v-4h8.9C346.3,187.4,347.8,187.1,348.9,186.5"/>
		<path class="st3" d="M313,181.5v1.1c0,1.9,1.3,3,3.8,3.4c0.4,0.1,2.6,0.2,6.8,0.3c2.2,0.1,3.3,0.5,3.3,1.2v1.3
			c0,0.7-1.1,1.1-3.5,1.1h-9.2c-0.4,0-0.8,0.1-1,0.5c-0.1,0.2-0.1,0.6-0.1,1c0,0.8,0.3,1.2,1.1,1.2h9.2c3.4,0,5.5-0.6,6.3-2
			c0.2-0.5,0.4-1.1,0.4-1.9v-1.2c0-1.5-0.9-2.6-2.5-3.3c-1.2-0.4-2.5-0.6-4.2-0.6h-3.5c-1.1,0-1.8-0.1-2.2-0.1c-1-0.1-1.5-0.5-1.5-1
			v-1c0-0.9,1.2-1.3,3.6-1.3c0.3,0,0.5,0,0.7,0c0.3,0,0.5,0,0.6,0c0.7,0,1.2-0.4,1.2-1.2v-0.3c0-0.7-0.5-1.2-1.2-1.2
			c-2.5,0-4.2,0.1-5.1,0.4C314,178.5,313,179.6,313,181.5"/>
		<path d="M308.4,186.4c1.5-0.7,2.3-1.8,2.3-3.2v-1.7c0-1.5-0.8-2.6-2.3-3.2c-1.2-0.5-2.7-0.8-4.3-0.8h-10.8c-0.7,0-1.1,0.5-1.1,1.2
			v12.7c0,0.6,0.2,1,0.7,1.1c0.2,0.1,0.5,0.1,1.2,0.1c0.8,0,1.2-0.4,1.2-1.2v-4.1l11.8,5.2c0.2,0.1,0.7,0.1,1.6,0.1
			c0.9-0.1,1.3-0.4,1.3-1.1c0-0.5-0.3-0.9-0.9-1.1l-8.7-3.4h4.1v-2.6h-9.2v-4.2h8.7c2.3,0,3.5,0.4,3.5,1.2v1.8c0,0.8-1,1.2-3,1.2
			v2.6C306.1,187,307.3,186.8,308.4,186.4"/>
		<path d="M273.5,179.5c-0.5,0.5-0.7,1.2-0.7,2v7.2c0,1.4,0.7,2.4,2.2,3.2c1.2,0.5,2.4,0.7,3.9,0.7h9.5c0.9,0,1.3-0.5,1.3-1.5
			c0-0.8-0.4-1.2-1.3-1.2h-9.3c-2.2,0-3.2-0.4-3.2-1.3v-2.1h12.5c0.4,0,0.8-0.2,1-0.5s0.3-0.6,0.3-1c0-0.8-0.4-1.2-1.3-1.2h-12.5
			v-2.3c0-0.9,1.4-1.4,4.1-1.4c0.3,0,0.7,0,1.1,0c0.4,0.1,0.6,0.1,0.7,0.1c0.8,0,1.1-0.4,1.1-1.2v-0.3c0-0.7-0.3-1.2-1.1-1.2h-2.6
			C276.4,177.5,274.6,178.2,273.5,179.5"/>
		<path d="M270.1,179.3c0-0.6-0.2-1-0.5-1.3s-0.8-0.5-1.3-0.5c-0.6,0-1.2,0.3-1.6,0.9l-9,10.9l-9.1-10.9c-0.4-0.6-1-0.9-1.8-0.9
			c-0.5,0-0.9,0.2-1.1,0.5c-0.4,0.2-0.6,0.6-0.6,1.1v12.3c0,0.6,0.2,1,0.7,1.1c0.2,0.1,0.6,0.1,1.3,0.1s1.2-0.4,1.2-1.2v-9.3
			l7.5,9.7c0.5,0.6,1.1,0.8,1.9,0.8c0.7,0,1.4-0.2,1.9-0.8l7.3-9.6v9.2c0,0.8,0.4,1.2,1.3,1.2c0.6,0,1,0,1.1-0.1
			c0.5-0.1,0.8-0.5,0.8-1.1L270.1,179.3"/>
		<path d="M218,178c-0.3,0.2-0.6,0.6-0.6,1.1v12.3c0,0.6,0.3,1,0.8,1.1c0.1,0.1,0.6,0.1,1.2,0.1c0.8,0,1.2-0.4,1.2-1.2v-9.3l7.6,9.7
			c0.4,0.6,1.1,0.8,1.9,0.8c0.7,0,1.3-0.2,1.8-0.8l7.4-9.6v9.2c0,0.8,0.4,1.2,1.2,1.2c0.7,0,1.1,0,1.2-0.1c0.5-0.1,0.7-0.5,0.7-1.1
			v-12.1c0-0.6-0.1-1-0.5-1.3c-0.3-0.3-0.7-0.5-1.2-0.5c-0.7,0-1.3,0.3-1.7,0.9l-8.9,10.9l-9.2-10.9c-0.4-0.6-1-0.9-1.7-0.9
			C218.7,177.5,218.3,177.7,218,178"/>
		<path d="M176.8,183.8v-5.1c0-0.7-0.4-1.2-1.2-1.2c-0.6,0-1.1,0-1.2,0.1c-0.5,0.1-0.7,0.5-0.7,1.1v12.7c0,0.6,0.1,1,0.6,1.1
			c0.2,0,0.7,0.1,1.3,0.1c0.8,0,1.2-0.4,1.2-1.2v-4.9h12.4v4.9c0,0.6,0.2,1,0.6,1.1c0.2,0,0.7,0.1,1.3,0.1c0.8,0,1.2-0.4,1.2-1.2
			v-12.7c0-0.7-0.4-1.2-1.2-1.2c-0.6,0-1,0.1-1.3,0.1c-0.4,0.1-0.6,0.5-0.6,1.1v5.1L176.8,183.8"/>
		<path d="M206,178.2c-0.1,0-0.2-0.1-0.2-0.2c-0.3-0.5-0.9-0.7-1.6-0.6c-0.9,0-1.5,0.3-1.9,0.8L194,191c-0.1,0.2-0.2,0.4-0.2,0.5
			c0,0.5,0.4,0.8,1,1c0.2,0.2,0.4,0.2,0.6,0.2c0.4,0,0.7-0.2,1.1-0.7l2.2-3.3h11l2.3,3.3c0.3,0.6,0.8,0.9,1.4,0.9
			c0.4,0,0.8-0.2,1.1-0.4c0.3-0.4,0.4-0.7,0.4-1.1c0-0.2,0-0.4-0.1-0.5L206,178.2l-1.8,2.4l3.8,5.4h-7.6l3.8-5.4"/>
	</g>
	<path class="st2" d="M262.2-32.5c-0.1-0.4-0.3-0.8-0.6-1c-0.4-0.3-0.8-0.5-1.3-0.7c-0.5-0.1-1-0.1-1.7-0.1c-0.3,0-0.7,0-1.1,0
		c-0.4,0.1-0.7,0.1-1.1,0.2v10.6h2.1v-4.3h0.3c0.3,0,0.6,0.1,0.8,0.3c0.2,0.3,0.4,0.7,0.4,1.4c0.1,0.4,0.1,0.8,0.2,1.1
		c0.1,0.4,0.2,0.7,0.2,0.9c0.1,0.3,0.1,0.5,0.2,0.6h2.1c0-0.2-0.1-0.3-0.2-0.7c0-0.3-0.1-0.6-0.2-1.1c-0.1-0.3-0.2-0.7-0.2-1.2
		c-0.1-0.5-0.3-1-0.5-1.3c-0.2-0.4-0.5-0.6-0.8-0.7v-0.1l-0.9-1.3c-0.3,0.3-0.6,0.4-1,0.5h-0.4v-3.3c0,0,0.1,0,0.2,0s0.2,0,0.3,0
		c0.5,0,0.8,0.2,1,0.4c0.2,0.3,0.3,0.8,0.3,1.2c0,0.5-0.2,0.9-0.4,1.2l0.9,1.3c0.5-0.2,0.9-0.7,1.2-1.1c0.3-0.5,0.4-1,0.4-1.6
		C262.4-31.9,262.4-32.3,262.2-32.5"/>
	<path class="st2" d="M292-34.3h-2.6l-2.3,10.8h2l0.5-2.5h1.9l-0.1-1.6h-1.6l0.4-2.2c0-0.2,0-0.5,0.1-0.8c0.1-0.2,0.1-0.6,0.2-0.9
		c0-0.3,0.1-0.5,0.1-0.8l0,0c0.1,0.3,0.1,0.5,0.1,0.8c0.1,0.3,0.1,0.6,0.2,0.9c0,0.3,0.1,0.5,0.1,0.8l0.4,2.2l0.1,1.6l0.5,2.5h2
		L292-34.3"/>
	<path class="st2" d="M322.1-32.3c0.3-0.2,0.7-0.3,1.1-0.3c0.3,0,0.4,0,0.5,0c0.2,0.1,0.4,0.1,0.4,0.2l0.4-1.8
		c-0.1-0.1-0.3-0.2-0.5-0.2c-0.3,0-0.6,0-0.9,0c-0.6,0-1.1,0-1.6,0.3c-0.5,0.2-1,0.5-1.4,1c-0.5,0.4-0.7,1-1,1.7
		c-0.2,0.7-0.4,1.5-0.4,2.5c0,1.1,0.2,2,0.4,2.8c0.4,0.8,0.8,1.4,1.4,1.9c0.6,0.4,1.4,0.7,2.2,0.7c0.4,0,0.8-0.1,1-0.1
		c0.3-0.1,0.5-0.1,0.7-0.2l-0.2-1.7c-0.1,0.1-0.3,0.1-0.5,0.1c-0.1,0-0.3,0-0.5,0c-0.5,0-0.8,0-1.1-0.3c-0.4-0.2-0.7-0.7-0.9-1.2
		c-0.1-0.5-0.2-1.2-0.2-2c0-0.9,0.1-1.7,0.2-2.2C321.5-31.5,321.7-32,322.1-32.3"/>
	<g class="st2">
		<path d="M335.6,202.2h-1.9V213h1.8v-2.5c0-1,0-2,0-2.8c-0.1-0.8-0.1-1.5-0.1-2l0,0c0.1,0.3,0.2,0.6,0.4,1c0,0.4,0.2,0.8,0.4,1.2
			c0.1,0.3,0.2,0.7,0.3,1l1.7,4.1h1.9v-10.8h-1.8v2.4c0,1,0,1.9,0,2.8c0,0.8,0.1,1.6,0.1,2.2l0,0c-0.1-0.4-0.2-0.7-0.3-1.1
			c-0.2-0.3-0.3-0.7-0.4-1.1c-0.2-0.4-0.4-0.7-0.4-0.9L335.6,202.2"/>
		<polyline points="307.8,202.2 305.8,202.2 305.8,213 307.8,213 307.8,202.2 		"/>
		<path d="M371.9,212.7V207H369v1.7h1v2.5c-0.1,0.1-0.1,0.1-0.2,0.1h-0.2c-0.4,0-0.7-0.1-1-0.3c-0.3-0.3-0.5-0.6-0.7-1.2
			c-0.2-0.5-0.3-1.1-0.3-2c0-1,0.1-1.7,0.3-2.3c0.2-0.5,0.5-0.8,1-1.1c0.3-0.2,0.7-0.4,1.2-0.4c0.3,0,0.5,0,0.8,0.1
			c0.2,0.1,0.3,0.1,0.5,0.1l0.4-1.7c-0.2-0.2-0.4-0.2-0.7-0.3c-0.3,0-0.7,0-1.1,0c-0.6,0-1.1,0-1.7,0.3c-0.5,0.2-1,0.5-1.4,1
			c-0.5,0.4-0.8,1-1.1,1.7c-0.2,0.6-0.4,1.5-0.4,2.5c0,0.9,0.1,1.8,0.4,2.5c0.2,0.7,0.6,1.3,1,1.8c0.3,0.3,0.8,0.7,1.3,0.8
			c0.4,0.2,1,0.3,1.5,0.3c0.3,0,0.6,0,0.9-0.1c0.3,0,0.6-0.1,0.8-0.1C371.6,212.8,371.8,212.7,371.9,212.7"/>
		<path d="M218.4,204c-0.1-0.4-0.3-0.8-0.6-1c-0.4-0.3-0.8-0.5-1.3-0.7c-0.5-0.1-1-0.1-1.7-0.1c-0.3,0-0.7,0-1.1,0
			c-0.4,0.1-0.7,0.1-1.1,0.2V213h2.1v-4.3h0.3c0.3,0,0.6,0.1,0.8,0.3c0.2,0.3,0.4,0.7,0.4,1.4c0.1,0.4,0.1,0.8,0.2,1.1
			c0.1,0.4,0.2,0.7,0.2,0.9c0.1,0.3,0.1,0.5,0.2,0.6h2.1c0-0.2-0.1-0.3-0.2-0.7c0-0.3-0.1-0.6-0.2-1.1c-0.1-0.3-0.2-0.7-0.2-1.2
			c-0.1-0.5-0.3-1-0.5-1.3c-0.2-0.4-0.5-0.6-0.8-0.7v-0.1l-0.9-1.3c-0.3,0.3-0.6,0.4-1,0.5h-0.4v-3.3c0,0,0.1,0,0.2,0
			c0.1,0,0.2,0,0.3,0c0.5,0,0.8,0.2,1,0.4c0.2,0.3,0.3,0.8,0.3,1.2c0,0.5-0.2,0.9-0.4,1.2l0.9,1.3c0.5-0.2,0.9-0.7,1.2-1.1
			c0.3-0.5,0.4-1,0.4-1.6C218.6,204.7,218.6,204.3,218.4,204"/>
		<path d="M248.2,202.2h-2.6l-2.3,10.8h2l0.5-2.5h1.9l-0.1-1.6H246l0.4-2.2c0-0.2,0-0.5,0.1-0.8c0.1-0.2,0.1-0.6,0.2-0.9
			c0-0.3,0.1-0.5,0.1-0.8l0,0c0.1,0.3,0.1,0.5,0.1,0.8c0.1,0.3,0.1,0.6,0.2,0.9c0,0.3,0.1,0.5,0.1,0.8l0.4,2.2l0.1,1.6l0.5,2.5h2
			L248.2,202.2"/>
		<path d="M278.3,204.3c0.3-0.2,0.7-0.3,1.1-0.3c0.3,0,0.4,0,0.5,0c0.2,0.1,0.4,0.1,0.4,0.2l0.4-1.8c-0.1-0.1-0.3-0.2-0.5-0.2
			c-0.3,0-0.6,0-0.9,0c-0.6,0-1.1,0-1.6,0.3c-0.5,0.2-1,0.5-1.4,1c-0.5,0.4-0.7,1-1,1.7c-0.2,0.7-0.4,1.5-0.4,2.5
			c0,1.1,0.2,2,0.4,2.8c0.4,0.8,0.8,1.4,1.4,1.9c0.6,0.4,1.4,0.7,2.2,0.7c0.4,0,0.8-0.1,1-0.1c0.3-0.1,0.5-0.1,0.7-0.2l-0.2-1.7
			c-0.1,0.1-0.3,0.1-0.5,0.1c-0.1,0-0.3,0-0.5,0c-0.5,0-0.8,0-1.1-0.3c-0.4-0.2-0.7-0.7-0.9-1.2c-0.1-0.5-0.2-1.2-0.2-2
			c0-0.9,0.1-1.7,0.2-2.2C277.7,205,277.9,204.6,278.3,204.3"/>
	</g>
	<line class="st4" x1="434.9" y1="-42.8" x2="240.9" y2="-42.8"/>
	<g class="st2">
		<path d="M197.2-75.4c0-0.1,0-0.2-0.1-0.3c-0.1,0-0.2-0.1-0.3-0.1h-4.6c-0.1,0-0.2,0.1-0.3,0.1c-0.1,0.1-0.1,0.2-0.1,0.3v25.6
			h-18.4v-16.6c0-0.2,0-0.4,0-0.5V-67c-0.1-0.4-0.2-0.8-0.2-1s0-0.4,0-0.5l0,0c-0.9-3.4-2.8-6.4-5.4-9.1c-1.9-1.9-4.1-3.3-6.4-4.3
			c-2.3-0.8-4.7-1.3-7.3-1.3c-2.5,0-4.9,0.5-7.2,1.3c-2.4,1-4.6,2.4-6.6,4.3c-0.1,0.1-0.1,0.2-0.1,0.2c-0.1,0-0.1,0.1-0.1,0.2l0,0
			l3.6,3.2h0.3c2.7-2.8,6.2-4.2,10.1-4.2c4.1,0,7.5,1.4,10.2,4.2c1.4,1.3,2.5,2.8,3.3,4.5c0.2,0.6,0.3,1.1,0.6,1.7
			c0,0.4,0.1,0.9,0.2,1.4v17h-14.7c-1.1,0-2,0-2.8-0.2c-2.7-0.8-5.2-2.2-7.2-4.2c-2.6-2.7-3.9-6-3.9-9.9c0-4,1.3-7.4,3.9-10.3
			l-3.6-3.2c-3.5,3.8-5.3,8.3-5.3,13.5s1.8,9.7,5.5,13.4c2.5,2.6,5.5,4.4,8.9,5.4c0,0,0.2,0,0.3,0.1c1,0.3,2.4,0.4,4.2,0.4h14.4
			v24.1c0,0.1,0,0.2,0.1,0.2c0,0.1,0.1,0.1,0.2,0.1h4.7c0.1,0,0.2,0,0.2-0.1c0,0,0.1-0.1,0.1-0.2v-24.1h18.4v14.9
			c0,1.1,0.2,2.3,0.5,3.7l0,0c0,0.1,0,0.2,0,0.3c0.8,3.3,2.4,6.2,4.9,8.7c3.9,3.9,8.6,5.9,13.9,5.9s9.9-2,13.7-5.9
			c3.8-3.8,5.8-8.3,5.8-13.4c0-5.3-2-10-5.8-13.9c-2.7-2.7-5.8-4.4-9.5-5.2c0-0.1-0.2,0-0.2,0s0,0-0.1,0.1l-0.7,4.9
			c2.6,0.4,4.9,1.7,7,3.7c2.8,2.9,4.3,6.3,4.3,10.4c0,3.9-1.5,7.1-4.3,9.9c-2.8,2.9-6.2,4.4-10.2,4.4s-7.5-1.5-10.4-4.4
			c-1.9-1.9-3-4-3.4-6.2c-0.4-1.1-0.5-2.1-0.5-3v-15.3h14.8c0.9,0,1.8,0.2,2.7,0.5l0.7-4.9c-1.2-0.3-2.4-0.6-3.4-0.6h-14.4
			L197.2-75.4"/>
		<path class="st5" d="M211.6-44.8h-14.8v15.3c0,0.9,0.1,1.9,0.5,3c0.4,2.2,1.5,4.3,3.4,6.2c2.9,2.9,6.4,4.4,10.4,4.4
			s7.4-1.5,10.2-4.4c2.8-2.8,4.3-6,4.3-9.9c0-4.1-1.5-7.5-4.3-10.4c-2.1-2-4.4-3.3-7-3.7C213.4-44.7,212.5-44.8,211.6-44.8"/>
		<path class="st5" d="M143.7-74.1c-2.6,2.9-3.9,6.3-3.9,10.3c0,3.9,1.3,7.2,3.9,9.9c2,2,4.5,3.4,7.2,4.2c0.8,0.2,1.7,0.2,2.8,0.2
			h14.7v-17c-0.1-0.5-0.2-1-0.2-1.4c-0.3-0.6-0.4-1.1-0.6-1.7c-0.8-1.7-1.9-3.2-3.3-4.5c-2.7-2.8-6.1-4.2-10.2-4.2
			c-3.9,0-7.4,1.4-10.1,4.2H143.7"/>
		<path class="st5" d="M197.2-75.4v25.6h14.4c1,0,2.2,0.3,3.4,0.6c0.1-0.1,0.1-0.1,0.1-0.1s0.2-0.1,0.2,0c3.7,0.8,6.8,2.5,9.5,5.2
			c3.8,3.9,5.8,8.6,5.8,13.9c0,5.1-2,9.6-5.8,13.4c-3.8,3.9-8.4,5.9-13.7,5.9s-10-2-13.9-5.9c-2.5-2.5-4.1-5.4-4.9-8.7
			c0-0.1,0-0.2,0-0.3l0,0c-0.3-1.4-0.5-2.6-0.5-3.7v-14.9h-18.4v24.1c0,0.1-0.1,0.2-0.1,0.2c0,0.1-0.1,0.1-0.2,0.1h-4.7
			c-0.1,0-0.2,0-0.2-0.1c-0.1,0-0.1-0.1-0.1-0.2v-24.1h-14.4c-1.8,0-3.2-0.1-4.2-0.4c-0.1-0.1-0.3-0.1-0.3-0.1
			c-3.4-1-6.4-2.8-8.9-5.4c-3.7-3.7-5.5-8.2-5.5-13.4s1.8-9.7,5.3-13.5l0,0c0-0.1,0-0.2,0.1-0.2c0,0,0-0.1,0.1-0.2
			c2-1.9,4.2-3.3,6.6-4.3c2.3-0.8,4.7-1.3,7.2-1.3c2.6,0,5,0.5,7.3,1.3c2.3,1,4.5,2.4,6.4,4.3c2.6,2.7,4.5,5.7,5.4,9.1l0,0
			c0,0.1,0,0.3,0,0.5s0.1,0.6,0.2,1v0.1c0,0.1,0,0.3,0,0.5v16.6h18.4v-25.6c0-0.1,0-0.2,0.1-0.3c0.1,0,0.2-0.1,0.3-0.1h4.6
			c0.1,0,0.2,0.1,0.3,0.1C197.2-75.7,197.2-75.6,197.2-75.4"/>
	</g>
	<g class="st2">
		<path d="M306.7,100.7c0-0.1,0-0.2-0.1-0.3c-0.1,0-0.2-0.1-0.3-0.1h-4.6c-0.1,0-0.2,0.1-0.3,0.1c-0.1,0.1-0.1,0.2-0.1,0.3v25.6
			h-18.4v-16.6c0-0.2,0-0.4,0-0.5v-0.1c-0.1-0.4-0.2-0.8-0.2-1s0-0.4,0-0.5l0,0c-0.9-3.4-2.8-6.4-5.4-9.1c-1.9-1.9-4.1-3.3-6.4-4.3
			c-2.3-0.8-4.7-1.3-7.3-1.3c-2.5,0-4.9,0.5-7.2,1.3c-2.4,1-4.6,2.4-6.6,4.3c-0.1,0.1-0.1,0.2-0.1,0.2c-0.1,0-0.1,0.1-0.1,0.2l0,0
			l3.6,3.2h0.3c2.7-2.8,6.2-4.2,10.1-4.2c4.1,0,7.5,1.4,10.2,4.2c1.4,1.3,2.5,2.8,3.3,4.5c0.2,0.6,0.3,1.1,0.6,1.7
			c0,0.4,0.1,0.9,0.2,1.4v17h-14.7c-1.1,0-2,0-2.8-0.2c-2.7-0.8-5.2-2.2-7.2-4.2c-2.6-2.7-3.9-6-3.9-9.9c0-4,1.3-7.4,3.9-10.3
			l-3.6-3.2c-3.5,3.8-5.3,8.3-5.3,13.5s1.8,9.7,5.5,13.4c2.5,2.6,5.5,4.4,8.9,5.4c0,0,0.2,0,0.3,0.1c1,0.3,2.4,0.4,4.2,0.4h14.4
			v24.1c0,0.1,0,0.2,0.1,0.2c0,0.1,0.1,0.1,0.2,0.1h4.7c0.1,0,0.2,0,0.2-0.1c0,0,0.1-0.1,0.1-0.2v-24.1h18.4v14.9
			c0,1.1,0.2,2.3,0.5,3.7l0,0c0,0.1,0,0.2,0,0.3c0.8,3.3,2.4,6.2,4.9,8.7c3.9,3.9,8.6,5.9,13.9,5.9s9.9-2,13.7-5.9
			c3.8-3.8,5.8-8.3,5.8-13.4c0-5.3-2-10-5.8-13.9c-2.7-2.7-5.8-4.4-9.5-5.2c0-0.1-0.2,0-0.2,0s0,0-0.1,0.1l-0.7,4.9
			c2.6,0.4,4.9,1.7,7,3.7c2.8,2.9,4.3,6.3,4.3,10.4c0,3.9-1.5,7.1-4.3,9.9c-2.8,2.9-6.2,4.4-10.2,4.4s-7.5-1.5-10.4-4.4
			c-1.9-1.9-3-4-3.4-6.2c-0.4-1.1-0.5-2.1-0.5-3v-15.3h14.8c0.9,0,1.8,0.2,2.7,0.5l0.7-4.9c-1.2-0.3-2.4-0.6-3.4-0.6h-14.4
			L306.7,100.7"/>
		<path class="st5" d="M321.1,131.3h-14.8v15.3c0,0.9,0.1,1.9,0.5,3c0.4,2.2,1.5,4.3,3.4,6.2c2.9,2.9,6.4,4.4,10.4,4.4
			s7.4-1.5,10.2-4.4c2.8-2.8,4.3-6,4.3-9.9c0-4.1-1.5-7.5-4.3-10.4c-2.1-2-4.4-3.3-7-3.7C322.9,131.5,322,131.3,321.1,131.3"/>
		<path class="st5" d="M253.2,102.1c-2.6,2.9-3.9,6.3-3.9,10.3c0,3.9,1.3,7.2,3.9,9.9c2,2,4.5,3.4,7.2,4.2c0.8,0.2,1.7,0.2,2.8,0.2
			h14.7v-17c-0.1-0.5-0.2-1-0.2-1.4c-0.3-0.6-0.4-1.1-0.6-1.7c-0.8-1.7-1.9-3.2-3.3-4.5c-2.7-2.8-6.1-4.2-10.2-4.2
			c-3.9,0-7.4,1.4-10.1,4.2H253.2"/>
		<path class="st5" d="M306.7,100.7v25.6h14.4c1,0,2.2,0.3,3.4,0.6c0.1-0.1,0.1-0.1,0.1-0.1s0.2-0.1,0.2,0c3.7,0.8,6.8,2.5,9.5,5.2
			c3.8,3.9,5.8,8.6,5.8,13.9c0,5.1-2,9.6-5.8,13.4c-3.8,3.9-8.4,5.9-13.7,5.9c-5.3,0-10-2-13.9-5.9c-2.5-2.5-4.1-5.4-4.9-8.7
			c0-0.1,0-0.2,0-0.3l0,0c-0.3-1.4-0.5-2.6-0.5-3.7v-14.9h-18.4v24.1c0,0.1-0.1,0.2-0.1,0.2c0,0.1-0.1,0.1-0.2,0.1h-4.7
			c-0.1,0-0.2,0-0.2-0.1c-0.1,0-0.1-0.1-0.1-0.2v-24.1h-14.4c-1.8,0-3.2-0.1-4.2-0.4c-0.1-0.1-0.3-0.1-0.3-0.1
			c-3.4-1-6.4-2.8-8.9-5.4c-3.7-3.7-5.5-8.2-5.5-13.4s1.8-9.7,5.3-13.5l0,0c0-0.1,0-0.2,0.1-0.2c0,0,0-0.1,0.1-0.2
			c2-1.9,4.2-3.3,6.6-4.3c2.3-0.8,4.7-1.3,7.2-1.3c2.6,0,5,0.5,7.3,1.3c2.3,1,4.5,2.4,6.4,4.3c2.6,2.7,4.5,5.7,5.4,9.1l0,0
			c0,0.1,0,0.3,0,0.5s0.1,0.6,0.2,1v0.1c0,0.1,0,0.3,0,0.5v16.6h18.4v-25.6c0-0.1,0-0.2,0.1-0.3c0.1,0,0.2-0.1,0.3-0.1h4.6
			c0.1,0,0.2,0.1,0.3,0.1C306.7,100.5,306.7,100.6,306.7,100.7"/>
	</g>
</g>
<g id="Layer_2_1_">
	<path d="M124.4,62.8L124.4,62.8l-17.1,0V31.3c0-1.4-1.1-2.5-2.5-2.5h-2.7c-1.4,0-2.5,1.1-2.5,2.5v31.5h-30V46.4
		c0-13.1-10-24.4-23-25.3c-15-1-27.4,11.4-26.4,26.4c0.9,13.1,12.2,23,25.3,23h16.4V102c0,1.4,1.1,2.5,2.5,2.5h2.8
		c1.3,0,2.4-1.1,2.4-2.4V70.5h30.1v17.2h0c0.1,14,11.9,25.3,26.1,24.5c12.5-0.7,22.7-10.9,23.3-23.3
		C149.9,74.6,138.5,62.8,124.4,62.8z M61.9,62.8H45.3c-8.6,0-16.2-6.2-17.3-14.8c-1.4-11.2,8-20.5,19.1-19.1
		c8.5,1.1,14.8,8.7,14.8,17.3L61.9,62.8z M122.1,104.4c-8.5-1.1-14.8-8.7-14.8-17.3V70.5h16.6c8.6,0,16.2,6.2,17.3,14.8
		C142.7,96.4,133.3,105.8,122.1,104.4z"/>
	<path class="st6" d="M561.3,41.3c-0.3-0.5-0.8-0.8-1.7-0.8h-24.7c-0.8,0-1.4,0.3-1.7,0.8c-0.2,0.3-0.3,0.8-0.3,1.7c0,1.4,0.8,2,2,2
		h9.7v19.1c0,1,0.2,1.7,1,1.9c0.3,0,1.2,0.2,2.4,0.2s1.9-0.7,1.9-2V45h9.7c1.4,0,2-0.7,2-2C561.7,42.1,561.5,41.6,561.3,41.3z"/>
	<path class="st6" d="M527.3,55.6c2.6-1.2,3.8-3.1,3.8-5.5v-2.9c0-2.6-1.2-4.4-3.8-5.5c-2.2-0.8-4.6-1.4-7.5-1.4h-18.2
		c-1.4,0-2,0.8-2,2v21.6c0,1,0.5,1.7,1.4,1.9c0.2,0.2,0.9,0.2,2,0.2c1.4,0,1.9-0.7,1.9-2v-7l20.3,8.9c0.2,0.2,1.2,0.2,2.7,0.2
		c1.4-0.2,2-0.7,2-1.9c0-0.8-0.3-1.5-1.4-1.9l-14.8-5.8h6.8C523.2,56.6,525.4,56.3,527.3,55.6z M504.8,52.2V45h14.8c4.1,0,6,0.7,6,2
		v3.1c0,1.4-1.7,2-5.1,2L504.8,52.2L504.8,52.2z"/>
	<path class="st6" d="M491.2,41.4c-1.7-0.7-4.3-1-7.8-1h-7.2c-7.8,0-11.9,2.6-11.9,7.2v11.6c0,2.6,1.5,4.6,4.4,5.8
		c2,0.8,4.6,1.2,7.5,1.2h7.2c7.8,0,11.9-2.4,11.9-7V47.6C495.3,44.7,493.9,42.5,491.2,41.4z M489.8,59c0,1.7-2,2.6-6.3,2.6h-7.3
		c-4.3,0-6.5-0.8-6.5-2.6V47.7c0-1.9,2.2-2.7,6.5-2.7h7.3c4.3,0,6.3,0.8,6.3,2.7V59z"/>
	<path class="st6" d="M455.2,41.4c-1.5-0.7-3.6-1-6-1h-18.9c-1.4,0-2,0.8-2,2v21.6c0,1.4,0.7,2,2,2c1,0,1.9-0.2,2-0.2
		c0.9-0.2,1.4-0.8,1.4-1.9v-6.8h15.2c2.9,0,5.5-0.5,7.3-1.5c2.6-1,3.8-2.7,3.8-5.5v-3.9C460,44.2,458.4,42.6,455.2,41.4z
		 M454.7,50.1c0,1.7-1.9,2.6-5.5,2.6h-15.5V45h15.5c3.6,0,5.5,0.5,5.5,1.7V50.1z"/>
	<path class="st6" d="M423.5,62.7c0.3-0.8,0.7-1.9,0.7-3.2v-2c0-2.6-1.5-4.4-4.3-5.6c-2-0.7-4.3-1-7.2-1h-6c-1.9,0-3.1-0.2-3.8-0.2
		c-1.7-0.2-2.6-0.8-2.6-1.7v-1.7c0-1.5,2-2.2,6.1-2.2c0.5,0,0.9,0,1.2,0c0.5,0,0.9,0,1,0c1.2,0,2-0.7,2-2v-0.5c0-1.2-0.9-2-2-2
		c-4.3,0-7.2,0.2-8.7,0.7c-3.4,1-5.1,2.9-5.1,6.1v1.9c0,3.2,2.2,5.1,6.5,5.8c0.7,0.2,4.4,0.3,11.6,0.5c3.8,0.2,5.6,0.8,5.6,2v2.2
		c0,1.2-1.9,1.9-6,1.9h-15.7c-0.7,0-1.4,0.2-1.7,0.8c-0.2,0.3-0.2,1-0.2,1.7c0,1.4,0.5,2,1.9,2h15.7
		C418.6,66.1,422.1,65.1,423.5,62.7z"/>
	<path class="st7" d="M387.2,55.6c2.6-1.2,3.9-3.1,3.9-5.5v-2.9c0-2.6-1.4-4.4-3.9-5.5c-2-0.8-4.6-1.4-7.3-1.4h-18.4
		c-1.2,0-1.9,0.8-1.9,2v21.6c0,1,0.3,1.7,1.2,1.9c0.3,0.2,0.9,0.2,2,0.2c1.4,0,2-0.7,2-2v-7L385,66c0.3,0.2,1.2,0.2,2.7,0.2
		c1.5-0.2,2.2-0.7,2.2-1.9c0-0.8-0.5-1.5-1.5-1.9l-14.8-5.8h7C383.3,56.6,385.4,56.3,387.2,55.6z M364.9,52.2V45h14.8
		c3.9,0,6,0.7,6,2v3.1c0,1.4-1.7,2-5.1,2L364.9,52.2L364.9,52.2z"/>
	<path class="st7" d="M353.1,55.8c0.7,0,1.4-0.3,1.7-0.8c0.3-0.5,0.5-1,0.5-1.7c0-1.4-0.7-2-2.2-2h-21.3v-3.9c0-1.5,2.4-2.4,7-2.4
		c0.5,0,1.2,0,1.9,0c0.7,0.2,1,0.2,1.2,0.2c1.4,0,1.9-0.7,1.9-2v-0.5c0-1.2-0.5-2-1.9-2h-4.4c-4.8,0-7.8,1.2-9.7,3.4
		c-0.9,0.8-1.2,2-1.2,3.4v12.3c0,2.4,1.2,4.1,3.8,5.4c2,0.8,4.1,1.2,6.6,1.2h16.2c1.5,0,2.2-0.8,2.2-2.6c0-1.4-0.7-2-2.2-2h-15.9
		c-3.8,0-5.5-0.7-5.5-2.2v-3.6L353.1,55.8L353.1,55.8z"/>
	<path class="st7" d="M318.9,40.4c-1,0-2,0.5-2.7,1.5l-15.3,18.6l-15.5-18.6c-0.7-1-1.7-1.5-3.1-1.5c-0.9,0-1.5,0.3-1.9,0.8
		c-0.7,0.3-1,1-1,1.9v21c0,1,0.3,1.7,1.2,1.9c0.3,0.2,1,0.2,2.2,0.2s2-0.7,2-2V48.3l12.8,16.5c0.9,1,1.9,1.4,3.2,1.4
		c1.2,0,2.4-0.3,3.2-1.4l12.4-16.4v15.7c0,1.4,0.7,2,2.2,2c1,0,1.7,0,1.9-0.2c0.9-0.2,1.4-0.8,1.4-1.9V43.5c0-1-0.3-1.7-0.9-2.2
		C320.6,40.8,319.8,40.4,318.9,40.4z"/>
	<path class="st7" d="M273.9,41.3c-0.5-0.5-1.2-0.8-2-0.8c-1.2,0-2.2,0.5-2.9,1.5l-15.2,18.6l-15.7-18.6c-0.7-1-1.7-1.5-2.9-1.5
		c-0.9,0-1.5,0.3-2,0.8c-0.5,0.3-1,1-1,1.9v21c0,1,0.5,1.7,1.4,1.9c0.2,0.2,1,0.2,2,0.2c1.4,0,2-0.7,2-2V48.3l12.9,16.5
		c0.7,1,1.9,1.4,3.2,1.4c1.2,0,2.2-0.3,3.1-1.4l12.6-16.4v15.7c0,1.4,0.7,2,2,2c1.2,0,1.9,0,2-0.2c0.9-0.2,1.2-0.8,1.2-1.9V43.5
		C274.8,42.5,274.6,41.8,273.9,41.3z"/>
	<path class="st7" d="M187.4,40.4c-1,0-1.7,0.2-2.2,0.2c-0.7,0.2-1,0.8-1,1.9v8.7H163v-8.7c0-1.2-0.7-2-2-2c-1,0-1.9,0-2,0.2
		c-0.9,0.2-1.2,0.8-1.2,1.9v21.7c0,1,0.2,1.7,1,1.9c0.3,0,1.2,0.2,2.2,0.2c1.4,0,2-0.7,2-2v-8.3h21.1v8.3c0,1,0.3,1.7,1,1.9
		c0.3,0,1.2,0.2,2.2,0.2c1.4,0,2-0.7,2-2V42.5C189.4,41.3,188.7,40.4,187.4,40.4z"/>
	<path class="st7" d="M227.7,63.2l-15-21.6c-0.2,0-0.3-0.2-0.3-0.3c-0.5-0.8-1.5-1.2-2.7-1c-1.5,0-2.6,0.5-3.2,1.4l-14.1,21.8
		c-0.2,0.3-0.3,0.7-0.3,0.9c0,0.8,0.7,1.4,1.7,1.7c0.3,0.3,0.7,0.3,1,0.3c0.7,0,1.2-0.3,1.9-1.2l3.8-5.6H219l3.9,5.6
		c0.5,1,1.4,1.5,2.4,1.5c0.7,0,1.4-0.3,1.9-0.7c0.5-0.7,0.7-1.2,0.7-1.9C227.9,63.8,227.9,63.4,227.7,63.2z M203.2,54.9l6.5-9.2
		l6.5,9.2H203.2z"/>
	<polygon class="st8" points="299,97.8 299,97.8 299,98 299,98 	"/>
	<g class="st9">
		<path d="M235.9,95.7l9.9-17.7h13.4l-0.8,3.6c-4.4,0-4.5,0-5.2,3.3l-2.7,12.8c-0.7,3.2-0.7,3.2,3.8,3.2l-0.7,3.6h-14.4l0.7-3.6
			c3.7,0,3.8-0.2,4.4-3.2l3-14.3l-11.9,21.2h-4.3l-3.1-21.2l-3,14.3c-0.7,3-0.7,3.2,3,3.2l-0.8,3.6H215l0.8-3.6c4.4,0,4.4,0,5.1-3.2
			l2.7-12.8c0.7-3.3,0.7-3.3-3.7-3.3l0.7-3.6h12.7L235.9,95.7z"/>
		<path d="M283.4,98.1c0.5,2.7,1.1,2.9,3.8,2.9l-0.7,3.6H272l0.8-3.6c4,0,4.6-0.4,4.1-2.8l-0.4-2h-9.2c-0.8,1.3-1,1.7-1.2,2
			c-1.3,2-1.3,2.8,3.1,2.8l-0.7,3.6h-12.8l0.8-3.6c3.2,0,3.8-0.6,5.6-3.5l7.5-12c2.3-3.7,2.3-3.8-2.3-3.8l0.7-3.6h11.6L283.4,98.1z
			 M269.2,92.8h6.8l-1.6-8.7L269.2,92.8z"/>
		<path d="M318.9,100.8l-0.8,3.6c-6.7,0.8-10.5,0.6-9.2-6.4c0.8-4.4-0.6-5-4.8-5h-2.6l-1,4.7c-0.6,3.1-0.1,3.2,3.8,3.2l-0.7,3.6
			h-15.2l0.8-3.6c4.4,0,4.4,0,5.1-3.2l2.7-12.8c0.6-3.2,0-3.2-3.7-3.3l0.7-3.6h13.4c8,0,12.2,1.6,11,7.4c-0.7,3.6-3.8,5.6-7.1,5.7
			c3.4,0.5,5,1.7,4.2,5.8C314.8,100.5,315.3,101.2,318.9,100.8z M305,89.3c3.3,0,6-0.6,6.6-3.8c0.7-3.2-1-3.9-5.7-3.9h-2l-1.6,7.7
			H305z"/>
		<path d="M342.5,83.7c2.2-1.6,1.7-2.1-1.2-2.1L342,78h13.2l-0.8,3.6c-4,0-4.8,0.6-7.6,2.7c-2.6,1.9-4.7,3.5-5.4,4
			c0.6,0.8,3.3,6.1,5.1,9.2c1.6,2.7,2.4,3.4,5.4,3.4l-0.7,3.6h-14.6l0.7-3.6c3.2,0,3.5-0.4,2.4-2.4l-3.4-6.3l-3.8,2.8l-0.6,2.6
			c-0.6,2.8-0.6,3.2,3,3.2l-0.8,3.6h-14.4l0.8-3.6c4.4,0,4.4,0,5.1-3.2l2.7-12.8c0.6-3.2,0.1-3.2-3.7-3.3l0.7-3.6H340l-0.7,3.6
			c-3.9,0-3.7,0-4.4,3.3l-1.2,5.4L342.5,83.7z"/>
		<path d="M354.1,100.9c4.4,0,4.4,0,5.1-3.2l2.7-12.8c0.7-3.3,0.8-3.3-3.6-3.3L359,78h26.3L383,88.9h-4c1.6-7.3,1.6-7.4-2.4-7.4
			h-7.8l-1.6,7.4h0.5c3.8,0,3.8,0,4.6-4h3.4L373.2,97h-3.4c1-4.5,1-4.5-2.8-4.5h-0.5l-1.8,8.4h7.8c3.9,0,3.9,0,5.5-7.6h4l-2.4,11.2
			h-26.4L354.1,100.9z"/>
		<path d="M405.1,81.5h-1.2l-3.4,16.2c-0.7,3.2-0.7,3.2,3.8,3.2l-0.8,3.6h-15.1l0.7-3.6c4.4,0,4.5,0,5.2-3.2l3.4-16.2h-1
			c-4.6,0-4.7,0.4-6.2,7.6h-3.7l2.3-11h25l-2.3,11h-3.8C409.4,82,409.3,81.5,405.1,81.5z"/>
		<path d="M427.2,100.9l-0.7,3.6h-15.2l0.8-3.6c4.4,0,4.4,0,5.1-3.2l2.7-12.8c0.7-3.3,0.7-3.3-3.7-3.3l0.7-3.6H432l-0.8,3.6
			c-4.4,0-4.5,0-5.2,3.3l-2.7,12.8C422.7,100.9,422.7,100.9,427.2,100.9z"/>
		<path d="M449.2,104.5l-6.9-20.8l-3,14c-0.7,3.2-0.7,3.2,3.8,3.2l-0.7,3.6h-13.1l0.8-3.6c4.4,0,4.4,0,5.1-3.2l2.7-12.8
			c0.7-3.3,0.7-3.3-3.7-3.3l0.7-3.6h12l6.9,20.8l2.9-13.9c0.7-3.3,0.7-3.3-3.8-3.3l0.8-3.6h13l-0.7,3.6c-4.5,0-4.5,0-5.2,3.3
			l-4.2,19.6H449.2z"/>
		<path d="M481.2,81.2c-5.5,0-8.2,5-9.2,10.1c-1.1,5.2-0.6,10,4.7,10c3.6,0,6-2.4,6-2.4l0.6-2.8c0.6-2.4,0.2-2.4-4.5-2.4l0.8-3.6
			h14.3l-0.8,3.6c-3.5,0-3.2,0-3.9,3.2l-1.6,7.6h-3.4c0.9-4.4-2.6,0.4-9.6,0.4c-7.9,0-10.8-6.7-9.3-14.1c1.5-7.2,6.9-13.3,15.4-13.3
			c7.2,0,7.3,4.9,8.2,0.4h3.6l-2,9.4h-3.4C487.3,84.4,485.9,81.2,481.2,81.2z"/>
	</g>
</g>
<g id="Layer_3">
</g>
</svg>
